<svg width="24" height="24" viewBox="0 0 24 24" fill="none" xmlns="http://www.w3.org/2000/svg">
<path d="M15.1421 24H8.91616C3.22061 24 0.799423 21.6447 0.799423 16.1414V11.1293C0.799423 10.6716 1.19142 10.2921 1.66413 10.2921C2.13684 10.2921 2.52884 10.6716 2.52884 11.1293V16.1414C2.52884 20.707 4.20061 22.3256 8.91616 22.3256H15.1306C19.8461 22.3256 21.5179 20.707 21.5179 16.1414V11.1293C21.5179 10.6716 21.9099 10.2921 22.3826 10.2921C22.8553 10.2921 23.2473 10.6716 23.2473 11.1293V16.1414C23.2588 21.6447 20.8261 24 15.1421 24Z" fill="#70707C"/>
<path d="M12.0282 12.8372C10.76 12.8372 9.60706 12.3572 8.78847 11.4753C7.96988 10.5935 7.58941 9.44372 7.71623 8.21581L8.48872 0.75907C8.53483 0.334884 8.90378 0 9.35343 0H14.7376C15.1873 0 15.5562 0.323721 15.6024 0.75907L16.3748 8.21581C16.5017 9.44372 16.1212 10.5935 15.3026 11.4753C14.4494 12.3572 13.2965 12.8372 12.0282 12.8372ZM10.1259 1.67442L9.43412 8.38326C9.35341 9.13116 9.58401 9.83442 10.0682 10.3479C11.0482 11.3972 13.0082 11.3972 13.9882 10.3479C14.4725 9.82326 14.7031 9.12 14.6224 8.38326L13.9306 1.67442H10.1259Z" fill="#70707C"/>
<path d="M19.3045 12.8372C16.964 12.8372 14.8771 11.0065 14.635 8.75163L13.828 0.926512C13.8049 0.692093 13.8856 0.457674 14.047 0.27907C14.2084 0.100465 14.439 0 14.6927 0H18.2092C21.5988 0 23.1784 1.37302 23.6511 4.74419L23.9739 7.84744C24.1122 9.16465 23.6972 10.4149 22.8094 11.3637C21.9216 12.3126 20.6765 12.8372 19.3045 12.8372ZM15.6496 1.67442L16.3644 8.58419C16.5143 9.97954 17.8517 11.1628 19.3045 11.1628C20.1807 11.1628 20.9647 10.8391 21.5296 10.2474C22.0831 9.65582 22.3367 8.86326 22.256 8.01488L21.9332 4.94512C21.5758 2.42233 20.7341 1.67442 18.2092 1.67442H15.6496Z" fill="#70707C"/>
<path d="M4.69553 12.8372C3.32353 12.8372 2.07835 12.3126 1.19058 11.3637C0.302808 10.4149 -0.112252 9.16465 0.0261011 7.84744L0.337397 4.77767C0.821634 1.37302 2.40117 0 5.79084 0H9.30732C9.54944 0 9.77998 0.100465 9.95292 0.27907C10.1259 0.457674 10.195 0.692093 10.172 0.926512L9.36496 8.75163C9.12285 11.0065 7.03601 12.8372 4.69553 12.8372ZM5.79084 1.67442C3.26588 1.67442 2.42423 2.41116 2.05529 4.96744L1.74399 8.01488C1.65176 8.86326 1.91693 9.65582 2.47035 10.2474C3.02376 10.8391 3.80776 11.1628 4.69553 11.1628C6.14824 11.1628 7.49719 9.97954 7.63555 8.58419L8.35038 1.67442H5.79084Z" fill="#70707C"/>
<path d="M14.9117 24H9.147C8.6743 24 8.2823 23.6204 8.2823 23.1627V20.372C8.2823 18.0279 9.60818 16.7441 12.0294 16.7441C14.4506 16.7441 15.7764 18.0279 15.7764 20.372V23.1627C15.7764 23.6204 15.3844 24 14.9117 24ZM10.0117 22.3255H14.047V20.372C14.047 18.9655 13.4821 18.4186 12.0294 18.4186C10.5767 18.4186 10.0117 18.9655 10.0117 20.372V22.3255Z" fill="#70707C"/>
</svg>
