<svg width="40" height="40" viewBox="0 0 40 40" fill="none" xmlns="http://www.w3.org/2000/svg">
<circle cx="20" cy="20" r="20" fill="white"/>
<path d="M12.3999 27.2V23.8L23.5466 13.26C23.7155 13.1134 23.9021 13 24.1064 12.92C24.3108 12.84 24.5253 12.8 24.7499 12.8C24.9745 12.8 25.1927 12.84 25.4043 12.92C25.616 13 25.799 13.12 25.9532 13.28L27.1143 14.4C27.2832 14.5467 27.4065 14.72 27.4842 14.92C27.5619 15.12 27.6005 15.32 27.5999 15.52C27.5999 15.7334 27.5613 15.9368 27.4842 16.1304C27.4071 16.324 27.2838 16.5006 27.1143 16.66L15.9888 27.2H12.3999ZM24.7288 16.64L25.911 15.52L24.7288 14.4L23.5466 15.52L24.7288 16.64Z" fill="#77D94A"/>
</svg>
