<svg width="26" height="37" viewBox="0 0 26 37" fill="none" xmlns="http://www.w3.org/2000/svg">
<path d="M13 26.7787C16.0643 24.3121 18.3783 21.9379 19.942 19.6562C21.5057 17.3746 22.2869 15.2317 22.2857 13.2275C22.2857 11.5008 21.9681 10.0282 21.333 8.8097C20.6979 7.59117 19.9166 6.6045 18.9893 5.8497C18.0607 5.0949 17.0548 4.54792 15.9714 4.20875C14.8881 3.86958 13.8976 3.7 13 3.7C12.1024 3.7 11.1119 3.86958 10.0286 4.20875C8.94524 4.54792 7.93929 5.09552 7.01072 5.85155C6.08215 6.60635 5.30091 7.59302 4.667 8.81155C4.0331 10.0301 3.71553 11.5021 3.71429 13.2275C3.71429 15.2317 4.49615 17.3746 6.05986 19.6562C7.62357 21.9379 9.93695 24.3121 13 26.7787ZM13 30.8025C12.7214 30.8025 12.4583 30.7643 12.2107 30.6878C11.9631 30.6113 11.731 30.4954 11.5143 30.34C7.64524 27.3492 4.75862 24.4354 2.85443 21.5987C0.950244 18.7621 -0.00123167 15.9717 6.42608e-06 13.2275C6.42608e-06 11.0383 0.394959 9.11865 1.18486 7.46845C1.97477 5.81825 2.98753 4.43877 4.22315 3.33C5.46124 2.22 6.8541 1.3875 8.40172 0.8325C9.94934 0.2775 11.4821 0 13 0C14.5167 0 16.0488 0.2775 17.5964 0.8325C19.144 1.3875 20.5369 2.22 21.775 3.33C23.0131 4.44 24.0271 5.8201 24.817 7.4703C25.6069 9.1205 26.0012 11.0396 26 13.2275C26 15.9717 25.0479 18.7621 23.1437 21.5987C21.2395 24.4354 18.3535 27.3492 14.4857 30.34C14.3 30.4942 14.0753 30.6101 13.8116 30.6878C13.5479 30.7655 13.2773 30.8037 13 30.8025ZM13 16.65C14.0214 16.65 14.8961 16.288 15.6241 15.564C16.3521 14.8401 16.7155 13.9687 16.7143 12.95C16.7143 11.9325 16.3503 11.0611 15.6223 10.3359C14.8943 9.61075 14.0202 9.24876 13 9.25C11.9786 9.25 11.1039 9.6126 10.3759 10.3378C9.64786 11.063 9.28448 11.9337 9.28572 12.95C9.28572 13.9675 9.64972 14.8388 10.3777 15.564C11.1057 16.2892 11.9798 16.6512 13 16.65ZM1.85715 37C1.33096 37 0.889578 36.8224 0.533006 36.4672C0.176435 36.112 -0.00123167 35.6729 6.42608e-06 35.15C6.42608e-06 34.6258 0.178292 34.1861 0.534864 33.8309C0.891435 33.4757 1.3322 33.2988 1.85715 33.3H24.1429C24.669 33.3 25.1104 33.4776 25.467 33.8328C25.8236 34.188 26.0012 34.6271 26 35.15C26 35.6742 25.8217 36.1138 25.4651 36.469C25.1086 36.8242 24.6678 37.0012 24.1429 37H1.85715Z" fill="#16162F"/>
</svg>
