<svg width="21" height="30" viewBox="0 0 21 30" fill="none" xmlns="http://www.w3.org/2000/svg">
<path d="M10.5 21.7125C12.975 19.7125 14.844 17.7875 16.107 15.9375C17.37 14.0875 18.001 12.35 18 10.725C18 9.325 17.7435 8.131 17.2305 7.143C16.7175 6.155 16.0865 5.355 15.3375 4.743C14.5875 4.131 13.775 3.6875 12.9 3.4125C12.025 3.1375 11.225 3 10.5 3C9.775 3 8.975 3.1375 8.1 3.4125C7.225 3.6875 6.4125 4.1315 5.6625 4.7445C4.9125 5.3565 4.2815 6.1565 3.7695 7.1445C3.2575 8.1325 3.001 9.326 3 10.725C3 12.35 3.6315 14.0875 4.8945 15.9375C6.1575 17.7875 8.026 19.7125 10.5 21.7125ZM10.5 24.975C10.275 24.975 10.0625 24.944 9.8625 24.882C9.6625 24.82 9.475 24.726 9.3 24.6C6.175 22.175 3.8435 19.8125 2.3055 17.5125C0.767505 15.2125 -0.000994809 12.95 5.1903e-06 10.725C5.1903e-06 8.95 0.319005 7.3935 0.957005 6.0555C1.595 4.7175 2.413 3.599 3.411 2.7C4.411 1.8 5.536 1.125 6.786 0.675C8.036 0.225 9.274 0 10.5 0C11.725 0 12.9625 0.225 14.2125 0.675C15.4625 1.125 16.5875 1.8 17.5875 2.7C18.5875 3.6 19.4065 4.719 20.0445 6.057C20.6825 7.395 21.001 8.951 21 10.725C21 12.95 20.231 15.2125 18.693 17.5125C17.155 19.8125 14.824 22.175 11.7 24.6C11.55 24.725 11.3685 24.819 11.1555 24.882C10.9425 24.945 10.724 24.976 10.5 24.975ZM10.5 13.5C11.325 13.5 12.0315 13.2065 12.6195 12.6195C13.2075 12.0325 13.501 11.326 13.5 10.5C13.5 9.675 13.206 8.9685 12.618 8.3805C12.03 7.7925 11.324 7.499 10.5 7.5C9.675 7.5 8.9685 7.794 8.3805 8.382C7.7925 8.97 7.499 9.676 7.5 10.5C7.5 11.325 7.794 12.0315 8.382 12.6195C8.97 13.2075 9.676 13.501 10.5 13.5ZM1.5 30C1.075 30 0.718505 29.856 0.430505 29.568C0.142505 29.28 -0.000994809 28.924 5.1903e-06 28.5C5.1903e-06 28.075 0.144005 27.7185 0.432005 27.4305C0.720005 27.1425 1.076 26.999 1.5 27H19.5C19.925 27 20.2815 27.144 20.5695 27.432C20.8575 27.72 21.001 28.076 21 28.5C21 28.925 20.856 29.2815 20.568 29.5695C20.28 29.8575 19.924 30.001 19.5 30H1.5Z" fill="#16162F"/>
</svg>
