<svg width="36" height="36" viewBox="0 0 36 36" fill="none" xmlns="http://www.w3.org/2000/svg">
<path d="M21.6001 29C21.6001 28.7348 21.4947 28.4804 21.3072 28.2929C21.1197 28.1054 20.8653 28 20.6001 28H14.6001C14.3349 28 14.0805 28.1054 13.893 28.2929C13.7055 28.4804 13.6001 28.7348 13.6001 29C13.6001 29.2652 13.7055 29.5196 13.893 29.7071C14.0805 29.8946 14.3349 30 14.6001 30H20.6001C20.8653 30 21.1197 29.8946 21.3072 29.7071C21.4947 29.5196 21.6001 29.2652 21.6001 29Z" fill="#16162F"/>
<path d="M22.54 24H16.54C16.2748 24 16.0205 24.1054 15.8329 24.2929C15.6454 24.4804 15.54 24.7348 15.54 25C15.54 25.2652 15.6454 25.5196 15.8329 25.7071C16.0205 25.8946 16.2748 26 16.54 26H22.54C22.8053 26 23.0596 25.8946 23.2471 25.7071C23.4347 25.5196 23.54 25.2652 23.54 25C23.54 24.7348 23.4347 24.4804 23.2471 24.2929C23.0596 24.1054 22.8053 24 22.54 24Z" fill="#16162F"/>
<path d="M22 32H16C15.7348 32 15.4804 32.1054 15.2929 32.2929C15.1054 32.4804 15 32.7348 15 33C15 33.2652 15.1054 33.5196 15.2929 33.7071C15.4804 33.8946 15.7348 34 16 34H22C22.2652 34 22.5196 33.8946 22.7071 33.7071C22.8946 33.5196 23 33.2652 23 33C23 32.7348 22.8946 32.4804 22.7071 32.2929C22.5196 32.1054 22.2652 32 22 32Z" fill="#16162F"/>
<path d="M32.7002 32H25.7002C25.435 32 25.1806 32.1054 24.9931 32.2929C24.8056 32.4804 24.7002 32.7348 24.7002 33C24.7002 33.2652 24.8056 33.5196 24.9931 33.7071C25.1806 33.8946 25.435 34 25.7002 34H32.7002C32.9654 34 33.2198 33.8946 33.4073 33.7071C33.5948 33.5196 33.7002 33.2652 33.7002 33C33.7002 32.7348 33.5948 32.4804 33.4073 32.2929C33.2198 32.1054 32.9654 32 32.7002 32Z" fill="#16162F"/>
<path d="M33.7002 28H26.7002C26.435 28 26.1806 28.1054 25.9931 28.2929C25.8056 28.4804 25.7002 28.7348 25.7002 29C25.7002 29.2652 25.8056 29.5196 25.9931 29.7071C26.1806 29.8946 26.435 30 26.7002 30H33.7002C33.9654 30 34.2198 29.8946 34.4073 29.7071C34.5948 29.5196 34.7002 29.2652 34.7002 29C34.7002 28.7348 34.5948 28.4804 34.4073 28.2929C34.2198 28.1054 33.9654 28 33.7002 28Z" fill="#16162F"/>
<path d="M33.74 26C33.447 22.479 32.4901 19.0452 30.92 15.88C29.416 13.0197 27.2489 10.5612 24.6 8.71L27 3.42C27.0774 3.2619 27.1117 3.08618 27.0994 2.9106C27.0871 2.73501 27.0287 2.56578 26.93 2.42C26.839 2.29212 26.7192 2.18746 26.5802 2.1145C26.4412 2.04153 26.287 2.00231 26.13 2H9.80004C9.63193 1.99959 9.46643 2.04156 9.31884 2.12204C9.17125 2.20251 9.04632 2.3189 8.95562 2.46044C8.86491 2.60198 8.81135 2.7641 8.79989 2.93182C8.78843 3.09954 8.81944 3.26744 8.89004 3.42L11.34 8.73C8.71052 10.5829 6.55823 13.0334 5.06004 15.88C2.91004 19.88 2.24004 24.77 2.06004 28.16C2.03057 28.6563 2.10421 29.1533 2.27631 29.6197C2.44842 30.0861 2.71527 30.5118 3.06004 30.87C3.4224 31.222 3.85146 31.4979 4.322 31.6817C4.79254 31.8654 5.29507 31.9533 5.80004 31.94H12V30H5.72004C5.49373 29.9993 5.26989 29.9529 5.06196 29.8635C4.85404 29.7742 4.66631 29.6437 4.51004 29.48C4.35355 29.3176 4.23269 29.1243 4.1552 28.9125C4.07771 28.7007 4.0453 28.4751 4.06004 28.25C4.20004 25.64 4.75004 20.67 6.82004 16.8C8.27927 14.0271 10.4371 11.6832 13.08 10H14.08C13.4024 10.9375 12.7781 11.9123 12.21 12.92C11.6315 13.9922 11.1399 15.1092 10.74 16.26L12.11 17.18C12.5148 15.986 13.013 14.8257 13.6 13.71C14.3209 12.4127 15.14 11.1724 16.05 10H17.05C17.7209 11.6034 18.1944 13.2824 18.46 15C18.6773 16.2751 18.7843 17.5665 18.78 18.86L20.36 17.75C20.316 16.7443 20.2091 15.7424 20.04 14.75C19.7717 13.1282 19.343 11.537 18.76 10H19.54L20.45 8H13.21L11.36 4H24.57L22.07 9.47C22.4986 9.69954 22.9097 9.96024 23.3 10.25C25.7502 11.9404 27.7596 14.1933 29.16 16.82C30.5627 19.7002 31.4334 22.8102 31.73 26H33.74Z" fill="#16162F"/>
</svg>
