<svg width="24" height="24" viewBox="0 0 24 24" fill="none" xmlns="http://www.w3.org/2000/svg">
<path d="M18.4633 24H5.53674C2.47814 24 0 21.508 0 18.446V10.1654C0 8.64555 0.937674 6.73463 2.14326 5.79594L8.16 1.10245C9.96837 -0.305594 12.8595 -0.372643 14.7349 0.945999L21.6335 5.78476C22.9619 6.71228 24 8.70143 24 10.3218V18.4572C24 21.508 21.5219 24 18.4633 24ZM9.18698 2.4211L3.17023 7.11458C2.37767 7.74038 1.67442 9.1596 1.67442 10.1654V18.446C1.67442 20.5805 3.40465 22.3238 5.53674 22.3238H18.4633C20.5953 22.3238 22.3256 20.5916 22.3256 18.4572V10.3218C22.3256 9.249 21.5553 7.76273 20.6735 7.15928L13.7749 2.32052C12.5023 1.42652 10.4037 1.47122 9.18698 2.4211Z" fill="#77D94A"/>
</svg>
