<svg id="svg" version="1.1" xmlns="http://www.w3.org/2000/svg" xmlns:xlink="http://www.w3.org/1999/xlink" width="400" height="400" viewBox="0, 0, 400,400"><g id="svgg"><path id="path0" d="M377.600 121.955 C 377.600 122.150,376.764 122.435,375.741 122.588 C 374.719 122.741,373.594 123.022,373.241 123.212 C 372.889 123.402,371.612 124.031,370.404 124.610 C 369.196 125.189,368.116 125.788,368.004 125.940 C 367.892 126.092,367.350 126.436,366.800 126.705 C 365.666 127.260,364.459 128.011,363.757 128.600 C 357.356 133.968,352.800 138.646,352.800 139.851 C 352.800 140.167,352.530 140.529,352.200 140.655 C 351.870 140.782,351.600 141.142,351.600 141.455 C 351.600 141.769,351.341 142.124,351.024 142.246 C 350.708 142.367,350.334 142.992,350.193 143.633 C 350.052 144.275,349.791 144.800,349.614 144.800 C 349.436 144.800,349.170 145.606,349.022 146.591 C 348.875 147.576,348.595 148.480,348.400 148.600 C 348.205 148.720,347.926 149.669,347.780 150.709 C 347.633 151.749,347.263 152.999,346.957 153.486 C 346.301 154.530,346.133 168.000,346.775 168.000 C 346.982 168.000,347.274 168.855,347.425 169.900 C 347.575 170.945,347.946 172.407,348.249 173.149 C 348.552 173.891,348.800 174.914,348.800 175.422 C 348.800 176.337,350.007 177.090,350.744 176.635 C 350.937 176.516,351.214 175.514,351.361 174.409 C 351.508 173.304,351.787 172.400,351.982 172.400 C 352.177 172.400,352.463 171.815,352.618 171.100 C 352.774 170.385,353.013 169.710,353.150 169.600 C 353.545 169.284,355.202 165.849,355.201 165.349 C 355.200 165.101,355.458 164.683,355.774 164.421 C 356.090 164.159,356.464 163.417,356.606 162.772 C 356.748 162.128,357.015 161.600,357.200 161.600 C 357.385 161.600,357.652 161.075,357.793 160.433 C 357.934 159.792,358.308 159.167,358.624 159.046 C 358.941 158.924,359.200 158.549,359.200 158.213 C 359.200 157.876,359.368 157.600,359.573 157.600 C 359.778 157.600,360.074 157.198,360.229 156.708 C 360.718 155.167,362.122 153.359,366.215 149.000 L 368.468 146.600 365.989 149.600 C 364.626 151.250,363.321 153.005,363.091 153.500 C 362.860 153.995,362.520 154.400,362.336 154.400 C 362.151 154.400,362.000 154.657,362.000 154.971 C 362.000 155.286,361.734 155.809,361.408 156.134 C 360.631 156.912,358.800 160.369,358.800 161.060 C 358.800 161.357,358.620 161.600,358.400 161.600 C 358.180 161.600,358.000 161.947,358.000 162.371 C 358.000 162.796,357.730 163.413,357.400 163.743 C 357.070 164.073,356.800 164.604,356.800 164.922 C 356.800 165.241,356.549 165.710,356.242 165.965 C 355.935 166.220,355.568 167.044,355.427 167.797 C 355.286 168.550,354.908 169.669,354.588 170.283 C 354.267 170.897,354.004 171.694,354.002 172.054 C 354.001 172.414,353.731 173.224,353.402 173.854 C 353.074 174.484,352.804 175.484,352.802 176.076 C 352.801 176.668,352.620 177.264,352.400 177.400 C 351.454 177.985,352.146 178.400,354.067 178.400 C 355.203 178.400,356.014 178.280,355.868 178.134 C 355.722 177.988,356.727 177.402,358.101 176.832 C 361.020 175.621,365.051 173.429,365.600 172.754 C 365.710 172.619,366.224 172.375,366.743 172.213 C 367.261 172.051,368.041 171.622,368.476 171.259 C 368.911 170.897,369.640 170.285,370.095 169.900 C 370.550 169.515,371.054 169.200,371.216 169.200 C 371.894 169.200,378.366 162.972,381.200 159.591 C 381.970 158.673,382.825 157.682,383.100 157.389 C 383.375 157.097,383.600 156.677,383.600 156.457 C 383.600 156.237,383.839 155.818,384.132 155.525 C 384.729 154.928,385.739 153.154,386.423 151.500 C 386.673 150.895,387.021 150.400,387.195 150.400 C 387.369 150.400,387.629 149.770,387.774 149.000 C 387.918 148.230,388.190 147.600,388.379 147.600 C 388.567 147.600,388.847 146.520,389.000 145.200 C 389.153 143.880,389.416 142.800,389.584 142.800 C 389.752 142.800,390.015 141.405,390.168 139.700 C 390.321 137.995,390.682 136.237,390.971 135.794 C 391.259 135.351,391.629 134.361,391.794 133.594 C 391.958 132.827,392.228 132.020,392.394 131.800 C 392.560 131.580,392.826 130.680,392.985 129.801 C 393.143 128.921,393.442 128.098,393.647 127.971 C 393.853 127.844,394.124 126.853,394.250 125.770 L 394.479 123.800 392.837 123.100 C 391.934 122.715,390.746 122.400,390.197 122.400 C 389.649 122.400,389.200 122.220,389.200 122.000 C 389.200 121.752,387.000 121.600,383.400 121.600 C 380.210 121.600,377.600 121.760,377.600 121.955 M351.672 125.947 C 350.828 126.482,351.462 133.812,352.501 135.533 C 353.734 137.576,354.786 136.422,354.084 133.796 C 353.818 132.802,353.600 131.091,353.600 129.994 C 353.600 128.897,353.420 128.000,353.200 128.000 C 352.980 128.000,352.800 127.460,352.800 126.800 C 352.800 125.554,352.568 125.379,351.672 125.947 M345.701 157.000 C 345.705 157.880,345.787 158.193,345.883 157.695 C 345.979 157.198,345.975 156.478,345.875 156.095 C 345.775 155.713,345.696 156.120,345.701 157.000 " stroke="none" fill="#8cbc04" fill-rule="evenodd"></path><path id="path1" d="M303.996 128.100 C 303.560 128.815,303.202 129.679,303.201 130.020 C 303.201 130.361,302.975 130.865,302.700 131.140 C 301.875 131.964,301.771 141.180,302.558 143.589 C 302.911 144.668,303.200 145.975,303.200 146.494 C 303.200 148.092,308.169 157.067,310.600 159.860 C 310.820 160.112,311.540 161.003,312.200 161.839 C 313.481 163.461,317.909 168.000,318.211 168.000 C 318.310 168.000,319.428 168.720,320.696 169.599 C 321.963 170.479,323.225 171.199,323.500 171.199 C 323.775 171.200,324.000 171.380,324.000 171.600 C 324.000 171.820,324.315 172.001,324.700 172.002 C 325.085 172.004,325.883 172.257,326.473 172.565 C 327.063 172.873,328.143 173.254,328.873 173.413 C 329.603 173.571,330.295 173.848,330.411 174.029 C 331.031 174.997,345.649 176.618,346.458 175.809 C 346.633 175.634,346.314 171.708,345.811 167.846 C 345.574 166.024,344.994 165.200,343.951 165.200 C 343.538 165.200,343.200 165.034,343.200 164.832 C 343.200 164.629,342.660 164.345,342.000 164.200 C 341.340 164.055,340.800 163.771,340.800 163.568 C 340.800 163.366,340.543 163.200,340.229 163.200 C 339.914 163.200,339.413 162.975,339.115 162.700 C 338.816 162.425,337.589 161.673,336.386 161.029 C 334.146 159.828,332.146 158.397,329.499 156.102 C 327.182 154.093,328.101 154.562,330.898 156.817 C 332.274 157.926,333.805 158.936,334.300 159.060 C 334.795 159.185,335.200 159.403,335.200 159.544 C 335.200 159.983,341.869 163.200,342.778 163.200 C 343.010 163.200,343.200 163.380,343.200 163.600 C 343.200 163.820,343.650 164.000,344.200 164.000 C 344.966 164.000,345.203 163.790,345.214 163.100 C 345.230 162.123,345.818 155.934,346.231 152.400 C 346.372 151.190,346.648 150.029,346.844 149.820 C 347.312 149.320,347.304 146.904,346.834 146.733 C 346.632 146.660,345.106 145.295,343.443 143.700 C 341.780 142.105,340.235 140.800,340.009 140.800 C 339.784 140.800,339.600 140.637,339.600 140.437 C 339.600 140.237,338.790 139.562,337.801 138.937 C 336.811 138.312,336.001 137.696,336.001 137.568 C 336.000 137.441,335.055 136.903,333.900 136.373 C 332.745 135.842,331.710 135.308,331.600 135.185 C 331.490 135.062,330.590 134.726,329.600 134.439 C 328.610 134.152,327.620 133.776,327.400 133.604 C 327.180 133.432,326.190 133.160,325.200 133.000 C 324.210 132.840,323.220 132.570,323.000 132.400 C 322.780 132.229,321.610 131.959,320.400 131.800 C 319.190 131.641,318.020 131.373,317.800 131.206 C 317.580 131.038,316.545 130.777,315.500 130.626 C 314.455 130.475,313.600 130.182,313.600 129.975 C 313.600 129.769,313.222 129.600,312.760 129.600 C 312.298 129.600,310.467 128.970,308.690 128.200 C 304.767 126.500,304.968 126.504,303.996 128.100 " stroke="none" fill="#047b04" fill-rule="evenodd"></path><path id="path2" d="M248.958 114.360 C 243.853 117.473,244.142 129.657,249.445 134.953 C 250.965 136.471,255.187 138.799,256.420 138.800 C 257.856 138.800,258.726 157.089,257.487 161.226 C 254.134 172.423,240.657 170.431,234.129 157.774 C 232.060 153.762,231.753 152.800,232.540 152.800 C 233.737 152.800,239.114 148.786,240.700 146.707 C 248.690 136.240,245.922 124.934,235.400 125.062 C 214.553 125.316,205.099 152.340,219.028 171.860 C 229.115 185.996,253.613 186.496,260.135 172.699 C 262.798 167.067,263.925 154.928,262.392 148.400 C 262.211 147.630,261.940 145.335,261.789 143.300 L 261.515 139.600 264.330 139.600 L 267.144 139.600 266.787 140.844 C 263.859 151.056,267.287 169.438,273.256 175.530 C 279.835 182.246,291.489 179.060,295.316 169.500 C 298.274 162.109,299.099 146.150,296.572 145.190 C 294.203 144.289,293.600 145.159,293.597 149.490 C 293.585 163.077,291.204 171.600,287.421 171.600 C 284.960 171.600,283.907 168.973,283.218 161.109 C 281.885 145.889,281.410 142.904,279.713 139.095 C 277.700 134.575,274.762 132.984,269.274 133.442 C 267.537 133.587,264.949 133.581,263.524 133.428 L 260.933 133.151 260.478 128.075 C 259.462 116.728,254.589 110.927,248.958 114.360 M31.532 118.786 C 6.541 123.312,-4.651 156.728,9.423 184.800 C 22.102 210.088,55.910 212.274,63.581 188.302 L 64.060 186.805 65.572 188.718 C 70.485 194.932,76.109 197.263,83.944 196.330 C 107.400 193.538,110.093 142.635,87.011 138.368 C 70.466 135.310,56.723 153.554,59.953 174.287 C 61.142 181.915,54.668 190.109,46.994 190.689 C 22.237 192.561,10.456 131.957,34.651 127.197 C 41.881 125.775,47.413 130.235,49.786 139.400 L 50.615 142.600 52.094 142.723 C 53.980 142.881,54.195 142.175,53.890 136.852 C 53.087 122.841,45.040 116.340,31.532 118.786 M253.920 122.444 C 255.320 123.812,255.796 125.243,256.196 129.290 L 256.462 131.980 255.154 131.524 C 252.771 130.693,249.710 127.282,249.389 125.099 C 248.842 121.382,251.338 119.919,253.920 122.444 M182.489 129.625 C 178.514 130.408,174.703 133.561,172.300 138.054 L 171.200 140.111 171.199 137.755 C 171.195 131.834,164.993 129.268,158.816 132.630 C 154.484 134.988,153.842 137.965,153.817 155.800 C 153.769 190.175,164.277 213.660,176.588 206.687 C 179.408 205.090,179.604 204.181,177.851 200.844 C 176.167 197.640,174.744 192.498,173.821 186.281 C 172.913 180.164,172.954 179.891,174.441 182.136 C 181.441 192.705,199.314 187.796,206.201 173.412 C 216.666 151.554,202.640 125.654,182.489 129.625 M236.619 134.277 C 238.218 135.875,236.105 142.350,232.737 146.177 C 230.707 148.483,230.469 148.216,230.433 143.600 C 230.379 136.626,233.805 131.462,236.619 134.277 M127.361 134.399 C 114.400 136.299,106.594 147.676,106.640 164.600 C 106.689 183.013,116.284 194.052,130.744 192.330 C 154.041 189.557,156.924 138.747,134.031 134.406 C 131.662 133.957,130.386 133.955,127.361 134.399 M135.239 140.220 C 144.857 145.194,145.497 180.000,135.970 180.000 C 128.234 180.000,122.320 153.255,127.672 142.470 C 129.207 139.376,132.000 138.545,135.239 140.220 M88.439 144.220 C 98.057 149.194,98.697 184.000,89.170 184.000 C 81.434 184.000,75.520 157.255,80.872 146.470 C 82.407 143.376,85.200 142.545,88.439 144.220 M182.750 144.174 C 189.737 147.787,193.938 167.184,190.008 177.688 C 185.738 189.100,173.602 176.987,173.488 161.200 C 173.395 148.380,177.235 141.322,182.750 144.174 M211.744 189.980 C 202.831 191.375,199.215 200.232,199.203 220.700 C 199.202 224.055,199.049 226.800,198.864 226.800 C 198.679 226.800,197.644 226.532,196.564 226.204 C 193.998 225.426,193.711 225.445,193.186 226.427 C 192.309 228.065,194.534 229.939,198.166 230.620 L 199.512 230.872 199.804 241.005 C 200.424 262.493,198.490 267.852,189.570 269.367 C 183.279 270.435,186.502 276.808,193.326 276.795 C 203.811 276.775,209.840 269.617,211.650 255.039 C 212.107 251.363,211.913 232.069,211.406 230.757 C 211.203 230.229,211.791 229.962,214.679 229.269 C 216.616 228.805,218.578 228.315,219.041 228.181 C 219.850 227.947,219.893 228.113,220.167 232.469 C 221.595 255.236,226.426 271.835,233.179 277.184 C 243.937 285.704,259.200 277.386,259.200 263.003 C 259.200 261.471,259.659 261.586,261.752 263.640 C 268.979 270.732,282.428 270.754,287.827 263.684 L 289.200 261.885 289.160 265.842 C 289.103 271.467,289.045 271.596,286.191 272.380 C 268.413 277.267,269.804 298.913,287.710 296.019 C 297.536 294.432,303.077 288.490,306.195 276.200 C 307.100 272.633,307.128 272.586,309.251 271.104 C 316.783 265.845,319.960 260.251,321.806 249.000 C 322.463 244.994,322.595 235.968,322.040 232.955 C 321.842 231.880,321.553 229.335,321.398 227.300 L 321.115 223.600 323.930 223.600 L 326.744 223.600 326.387 224.844 C 323.459 235.056,326.887 253.438,332.856 259.530 C 339.528 266.340,351.169 263.035,355.012 253.241 L 356.103 250.459 357.594 252.345 C 362.484 258.531,368.122 260.861,375.944 259.930 C 399.400 257.138,402.093 206.235,379.011 201.968 C 362.423 198.902,348.368 217.682,352.047 238.000 C 353.552 246.317,350.901 255.600,347.021 255.600 C 344.560 255.600,343.507 252.973,342.818 245.109 C 341.485 229.889,341.010 226.904,339.313 223.095 C 337.300 218.575,334.362 216.984,328.874 217.442 C 327.137 217.587,324.549 217.581,323.124 217.428 L 320.533 217.151 320.078 212.075 C 319.211 202.393,316.342 197.597,311.420 197.601 C 304.016 197.608,302.382 212.299,309.045 218.953 C 310.577 220.482,314.790 222.799,316.040 222.800 C 316.562 222.800,316.729 223.484,316.942 226.500 C 317.087 228.535,317.420 232.135,317.683 234.500 C 318.843 244.948,315.703 257.037,310.278 263.005 L 308.200 265.291 308.164 254.345 C 308.127 243.016,307.732 237.796,305.794 223.000 C 304.545 213.470,304.361 212.819,302.425 211.071 C 298.793 207.789,293.411 208.019,289.931 211.606 C 288.074 213.520,288.058 213.527,287.331 212.724 C 283.605 208.603,273.598 209.814,266.555 215.238 C 257.864 221.930,252.172 238.838,254.852 250.000 C 256.500 256.869,253.171 266.401,249.082 266.517 C 244.076 266.658,242.684 261.739,239.596 233.000 C 239.147 228.820,238.676 224.826,238.550 224.124 L 238.320 222.847 240.260 222.724 C 243.956 222.488,243.137 220.061,239.144 219.416 C 237.761 219.192,237.674 219.085,237.405 217.290 C 234.609 198.594,224.621 187.965,211.744 189.980 M215.954 197.913 C 216.844 199.663,217.834 204.356,218.379 209.400 C 218.716 212.525,219.369 222.637,219.288 223.497 C 219.262 223.778,214.907 225.162,212.129 225.772 L 210.926 226.036 210.363 219.318 C 209.093 204.170,209.734 197.378,212.543 196.197 C 214.121 195.533,214.956 195.953,215.954 197.913 M313.520 206.444 C 314.920 207.812,315.396 209.243,315.796 213.290 L 316.062 215.980 314.754 215.524 C 312.371 214.693,309.310 211.282,308.989 209.099 C 308.442 205.382,310.938 203.919,313.520 206.444 M380.439 207.820 C 390.057 212.794,390.697 247.600,381.170 247.600 C 373.434 247.600,367.520 220.855,372.872 210.070 C 374.407 206.976,377.200 206.145,380.439 207.820 M283.689 219.278 C 288.426 222.588,290.502 241.258,287.136 250.276 C 284.593 257.087,277.501 256.102,274.126 248.470 C 267.925 234.450,274.907 213.140,283.689 219.278 M287.994 278.229 C 287.091 282.255,285.787 283.756,284.015 282.808 C 282.305 281.893,283.678 278.715,286.514 277.023 C 288.528 275.822,288.532 275.825,287.994 278.229 " stroke="none" fill="#040404" fill-rule="evenodd"></path><path id="path3" d="" stroke="none" fill="#503404" fill-rule="evenodd"></path><path id="path4" d="" stroke="none" fill="#043804" fill-rule="evenodd"></path></g></svg>