<svg width="30" height="31" viewBox="0 0 30 31" fill="none" xmlns="http://www.w3.org/2000/svg">
<path d="M24 24.5858C22.335 24.5858 21 25.9294 21 27.6051C21 28.4059 21.3161 29.1738 21.8787 29.7401C22.4413 30.3063 23.2044 30.6244 24 30.6244C24.7956 30.6244 25.5587 30.3063 26.1213 29.7401C26.6839 29.1738 27 28.4059 27 27.6051C27 26.8043 26.6839 26.0363 26.1213 25.4701C25.5587 24.9039 24.7956 24.5858 24 24.5858ZM0 0.431274V3.45059H3L8.4 14.9089L6.36 18.6075C6.135 19.0302 6 19.5284 6 20.0568C6 20.8576 6.31607 21.6256 6.87868 22.1918C7.44129 22.758 8.20435 23.0761 9 23.0761H27V20.0568H9.63C9.53054 20.0568 9.43516 20.017 9.36483 19.9463C9.29451 19.8755 9.255 19.7795 9.255 19.6794C9.255 19.6039 9.27 19.5435 9.3 19.4982L10.65 17.0375H21.825C22.95 17.0375 23.94 16.4034 24.45 15.4826L29.82 5.71507C29.925 5.47353 30 5.21689 30 4.96024C30 4.55986 29.842 4.17587 29.5607 3.89276C29.2794 3.60964 28.8978 3.45059 28.5 3.45059H6.315L4.905 0.431274M9 24.5858C7.335 24.5858 6 25.9294 6 27.6051C6 28.4059 6.31607 29.1738 6.87868 29.7401C7.44129 30.3063 8.20435 30.6244 9 30.6244C9.79565 30.6244 10.5587 30.3063 11.1213 29.7401C11.6839 29.1738 12 28.4059 12 27.6051C12 26.8043 11.6839 26.0363 11.1213 25.4701C10.5587 24.9039 9.79565 24.5858 9 24.5858Z" fill="#16162F"/>
</svg>
