<svg width="36" height="27" viewBox="0 0 36 27" fill="none" xmlns="http://www.w3.org/2000/svg">
<path fill-rule="evenodd" clip-rule="evenodd" d="M0.684448 11.6649L4.00045 12.7907V21.396C4.00045 21.6078 4.06528 21.8144 4.1859 21.987C4.30652 22.1596 4.47694 22.2895 4.67345 22.3588L17.6654 26.9406C17.8708 27.0158 18.0947 27.0197 18.3024 26.9518L18.3164 26.9477L18.3314 26.9427L31.3274 22.3588C31.524 22.2895 31.6944 22.1596 31.815 21.987C31.9356 21.8144 32.0004 21.6078 32.0005 21.396V12.7907L35.3165 11.6649C35.4694 11.6131 35.6078 11.5243 35.7198 11.4062C35.8319 11.2882 35.9143 11.1442 35.9599 10.9867C36.0056 10.8292 36.0132 10.6628 35.9821 10.5017C35.9511 10.3405 35.8822 10.1894 35.7814 10.0612L31.7814 4.96691C31.6628 4.81642 31.5047 4.70335 31.3254 4.64087L18.3274 0.0560124C18.1156 -0.0186708 17.8853 -0.0186708 17.6734 0.0560124L4.67545 4.64087C4.49618 4.7033 4.33803 4.81637 4.21945 4.96691L0.219448 10.0612C0.118686 10.1894 0.0498342 10.3405 0.0187585 10.5017C-0.0123172 10.6628 -0.00469527 10.8292 0.0409748 10.9867C0.0866449 11.1442 0.169009 11.2882 0.28105 11.4062C0.393092 11.5243 0.531488 11.6131 0.684448 11.6649ZM15.3194 15.8666L17.0004 13.4214V24.5504L6.00045 20.6706V13.4693L14.1844 16.2487C14.3889 16.318 14.6098 16.3181 14.8143 16.249C15.0188 16.18 15.196 16.0466 15.3194 15.8666ZM8.05745 5.60369L18.0004 9.1106L27.9434 5.60369L18.0004 2.09679L8.05745 5.60369ZM20.6814 15.8666L19.0004 13.4224V24.5514L30.0004 20.6716V13.4693L21.8164 16.2487C21.612 16.318 21.3911 16.3181 21.1866 16.249C20.9821 16.18 20.8049 16.0466 20.6814 15.8666ZM5.34045 6.80187L2.67745 10.1936L8.18845 12.0653L14.1084 14.0755L16.4214 10.7102L16.2864 10.6623L5.34045 6.80085V6.80187ZM33.3235 10.1936L30.6604 6.80085L19.5794 10.7102L21.8924 14.0755L33.3235 10.1936Z" fill="#16162F"/>
</svg>
