<svg width="30" height="31" viewBox="0 0 30 31" fill="none" xmlns="http://www.w3.org/2000/svg">
<path d="M3.33333 30.8584C2.41666 30.8584 1.63222 30.5302 0.979999 29.8738C0.327777 29.2173 0.00111111 28.4273 0 27.5036V6.57811C0 6.18671 0.0627775 5.8093 0.188333 5.44586C0.313888 5.08243 0.50111 4.74695 0.749999 4.43943L2.83333 1.8814C3.13888 1.49001 3.52055 1.1892 3.97833 0.978965C4.4361 0.768731 4.91555 0.664174 5.41666 0.665292H24.5833C25.0833 0.665292 25.5627 0.770409 26.0216 0.980642C26.4805 1.19088 26.8622 1.49113 27.1666 1.8814L29.25 4.43943C29.5 4.74695 29.6877 5.08243 29.8133 5.44586C29.9388 5.8093 30.0011 6.18671 30 6.57811V27.5036C30 28.4262 29.6738 29.2162 29.0216 29.8738C28.3694 30.5313 27.5844 30.8595 26.6666 30.8584H3.33333ZM3.99999 5.69747H26L24.5833 4.02008H5.41666L3.99999 5.69747ZM21.6666 9.05226H8.33332V22.4714L15 19.1166L21.6666 22.4714V9.05226Z" fill="#16162F"/>
</svg>
