<svg width="24" height="31" viewBox="0 0 24 31" fill="none" xmlns="http://www.w3.org/2000/svg">
<path d="M6 24.3584H18V21.339H6V24.3584ZM6 18.3197H18V15.3004H6V18.3197ZM3 30.397C2.175 30.397 1.469 30.1016 0.882 29.5108C0.295 28.92 0.001 28.209 0 27.3777V3.22317C0 2.39286 0.294 1.68231 0.882 1.09154C1.47 0.500757 2.176 0.204864 3 0.203857H15L24 9.2618V27.3777C24 28.208 23.7065 28.919 23.1195 29.5108C22.5325 30.1026 21.826 30.398 21 30.397H3ZM13.5 10.7715H21L13.5 3.22317V10.7715Z" fill="#16162F"/>
</svg>
