<svg width="36" height="36" viewBox="0 0 36 36" fill="none" xmlns="http://www.w3.org/2000/svg">
<path d="M36 8V32C36 33.1 35.6087 34.042 34.826 34.826C34.0433 35.61 33.1013 36.0013 32 36H4C2.9 36 1.95867 35.6087 1.176 34.826C0.393333 34.0433 0.00133333 33.1013 0 32V4C0 2.9 0.392 1.95867 1.176 1.176C1.96 0.393333 2.90133 0.00133333 4 0H28L36 8ZM18 30C19.6667 30 21.0833 29.4167 22.25 28.25C23.4167 27.0833 24 25.6667 24 24C24 22.3333 23.4167 20.9167 22.25 19.75C21.0833 18.5833 19.6667 18 18 18C16.3333 18 14.9167 18.5833 13.75 19.75C12.5833 20.9167 12 22.3333 12 24C12 25.6667 12.5833 27.0833 13.75 28.25C14.9167 29.4167 16.3333 30 18 30ZM6 14H24V6H6V14Z" fill="white"/>
</svg>
