<svg width="40" height="40" viewBox="0 0 40 40" fill="none" xmlns="http://www.w3.org/2000/svg">
<circle cx="20" cy="20" r="20" fill="#77D94A"/>
<path d="M19.5358 29.0699C14.2795 29.0699 10 24.7908 10 19.5349C10 14.2791 14.2795 10 19.5358 10C24.7921 10 29.0716 14.2791 29.0716 19.5349C29.0716 24.7908 24.7921 29.0699 19.5358 29.0699ZM19.5358 11.3954C15.0424 11.3954 11.3955 15.0512 11.3955 19.5349C11.3955 24.0187 15.0424 27.6745 19.5358 27.6745C24.0293 27.6745 27.6761 24.0187 27.6761 19.5349C27.6761 15.0512 24.0293 11.3954 19.5358 11.3954Z" fill="white"/>
<path d="M29.3046 30C29.1278 30 28.9511 29.9348 28.8115 29.7953L26.9509 27.9348C26.6811 27.6651 26.6811 27.2186 26.9509 26.9488C27.2207 26.679 27.6672 26.679 27.937 26.9488L29.7977 28.8093C30.0674 29.079 30.0674 29.5255 29.7977 29.7953C29.6581 29.9348 29.4813 30 29.3046 30Z" fill="white"/>
</svg>
