<svg width="32" height="28" viewBox="0 0 32 28" fill="none" xmlns="http://www.w3.org/2000/svg">
<path d="M32 8.39996C31.4667 3.99996 27.8667 0.666626 23.3333 0.666626C21.0667 0.666626 18.8 1.59996 17.2 3.19996C16.2667 4.13329 15.6 5.06663 15.2 6.26663L22.6667 11.2V11.3333H26.6667V14H22.6667V16.6666H26.6667V19.3333H22.6667V22H26.6667V24.6666H22.6667V27.3333H32V8.39996ZM17.7333 7.33329C18.5333 4.93329 20.8 3.33329 23.3333 3.33329C25.8667 3.33329 28.1333 4.93329 28.9333 7.33329H17.7333ZM0 12.6666V27.3333H6.66667V18H13.3333V27.3333H20V12.6666L10 5.99996L0 12.6666Z" fill="#16162F"/>
</svg>
