<svg width="15" height="25" viewBox="0 0 15 25" fill="none" xmlns="http://www.w3.org/2000/svg">
<path d="M12.0277 24.5053L0.380205 13.4235C0.241956 13.2916 0.1438 13.1486 0.0857355 12.9947C0.0276711 12.8408 -0.000900056 12.6759 2.16016e-05 12.5C2.16016e-05 12.3241 0.0285927 12.1592 0.0857355 12.0053C0.142878 11.8514 0.241035 11.7084 0.380205 11.5765L12.0277 0.461741C12.3502 0.153914 12.7535 0 13.2373 0C13.7212 0 14.1359 0.164908 14.4816 0.494723C14.8272 0.824538 15 1.20932 15 1.64908C15 2.08883 14.8272 2.47361 14.4816 2.80343L4.32029 12.5L14.4816 22.1966C14.8041 22.5044 14.9654 22.8839 14.9654 23.3351C14.9654 23.7863 14.7926 24.1763 14.447 24.5053C14.1014 24.8351 13.6982 25 13.2373 25C12.7765 25 12.3733 24.8351 12.0277 24.5053Z" fill="#77D94A"/>
</svg>
