<svg width="25" height="15" viewBox="0 0 25 15" fill="none" xmlns="http://www.w3.org/2000/svg">
<path d="M24.5053 2.97235L13.4235 14.6198C13.2916 14.758 13.1486 14.8562 12.9947 14.9143C12.8408 14.9723 12.6759 15.0009 12.5 15C12.3241 15 12.1592 14.9714 12.0053 14.9143C11.8514 14.8571 11.7084 14.759 11.5765 14.6198L0.461741 2.97235C0.153913 2.64977 -5.57471e-07 2.24654 -5.78622e-07 1.76267C-5.99773e-07 1.2788 0.164907 0.864055 0.494722 0.518433C0.824538 0.172811 1.20932 -5.28612e-08 1.64908 -7.20834e-08C2.08883 -9.13057e-08 2.47361 0.172811 2.80343 0.518432L12.5 10.6797L22.1966 0.518432C22.5044 0.195851 22.8839 0.0345611 23.3351 0.0345611C23.7863 0.0345611 24.1763 0.207372 24.5053 0.552994C24.8351 0.898615 25 1.30184 25 1.76267C25 2.2235 24.8351 2.62672 24.5053 2.97235Z" fill="#77D94A"/>
</svg>
