<svg width="24" height="24" viewBox="0 0 24 24" fill="none" xmlns="http://www.w3.org/2000/svg">
<circle cx="12" cy="12" r="12" fill="#CDF2A7"/>
<path d="M12.744 14.0465H11.9999C11.6947 14.0465 11.4417 13.7935 11.4417 13.4884C11.4417 13.1833 11.6947 12.9302 11.9999 12.9302H12.744C13.2575 12.9302 13.6743 12.5135 13.6743 12V5.11628H7.53472C6.65658 5.11628 5.85284 5.59254 5.42121 6.35905C5.27237 6.62696 4.93008 6.72374 4.66217 6.5749C4.39426 6.42606 4.29749 6.08372 4.44633 5.81581C5.07144 4.69953 6.25472 4 7.53472 4H14.2324C14.5375 4 14.7906 4.25302 14.7906 4.55814V12C14.7906 13.1312 13.8752 14.0465 12.744 14.0465Z" fill="#77D94A"/>
<path d="M17.2093 18.5116H16.4651C16.16 18.5116 15.907 18.2586 15.907 17.9535C15.907 17.44 15.4902 17.0232 14.9767 17.0232C14.4633 17.0232 14.0465 17.44 14.0465 17.9535C14.0465 18.2586 13.7935 18.5116 13.4884 18.5116H10.5116C10.2065 18.5116 9.95349 18.2586 9.95349 17.9535C9.95349 17.44 9.53674 17.0232 9.02326 17.0232C8.50977 17.0232 8.09302 17.44 8.09302 17.9535C8.09302 18.2586 7.84 18.5116 7.53488 18.5116H6.7907C5.25023 18.5116 4 17.2614 4 15.7209C4 15.4158 4.25302 15.1628 4.55814 15.1628C4.86326 15.1628 5.11628 15.4158 5.11628 15.7209C5.11628 16.6437 5.86791 17.3953 6.7907 17.3953H7.05115C7.29673 16.5395 8.08558 15.907 9.02326 15.907C9.96093 15.907 10.7498 16.5395 10.9953 17.3953H13.0121C13.2577 16.5395 14.0465 15.907 14.9842 15.907C15.9219 15.907 16.7107 16.5395 16.9563 17.3953H17.2093C18.1321 17.3953 18.8837 16.6437 18.8837 15.7209V14.0465H17.2093C16.4949 14.0465 15.907 13.4586 15.907 12.7442V10.5116C15.907 9.7972 16.4874 9.20929 17.2093 9.20929L16.413 7.81766C16.2493 7.52743 15.9367 7.34882 15.6019 7.34882H14.7907V12C14.7907 13.1311 13.8753 14.0465 12.7442 14.0465H12C11.6949 14.0465 11.4419 13.7935 11.4419 13.4884C11.4419 13.1832 11.6949 12.9302 12 12.9302H12.7442C13.2577 12.9302 13.6744 12.5135 13.6744 12V6.79068C13.6744 6.48557 13.9274 6.23254 14.2326 6.23254H15.6019C16.3386 6.23254 17.0158 6.62697 17.3805 7.26697L18.653 9.49208C18.7498 9.66324 18.7498 9.87906 18.653 10.0502C18.5563 10.2214 18.3702 10.3256 18.1693 10.3256H17.2093C17.1051 10.3256 17.0233 10.4074 17.0233 10.5116V12.7442C17.0233 12.8484 17.1051 12.9302 17.2093 12.9302H19.4419C19.747 12.9302 20 13.1832 20 13.4884V15.7209C20 17.2614 18.7498 18.5116 17.2093 18.5116Z" fill="#77D94A"/>
<path d="M9.02326 20C7.89209 20 6.97675 19.0847 6.97675 17.9535C6.97675 16.8223 7.89209 15.907 9.02326 15.907C10.1544 15.907 11.0698 16.8223 11.0698 17.9535C11.0698 19.0847 10.1544 20 9.02326 20ZM9.02326 17.0233C8.50977 17.0233 8.09302 17.44 8.09302 17.9535C8.09302 18.467 8.50977 18.8837 9.02326 18.8837C9.53675 18.8837 9.95349 18.467 9.95349 17.9535C9.95349 17.44 9.53675 17.0233 9.02326 17.0233Z" fill="#77D94A"/>
<path d="M14.9767 20C13.8456 20 12.9302 19.0847 12.9302 17.9535C12.9302 16.8223 13.8456 15.907 14.9767 15.907C16.1079 15.907 17.0233 16.8223 17.0233 17.9535C17.0233 19.0847 16.1079 20 14.9767 20ZM14.9767 17.0233C14.4633 17.0233 14.0465 17.44 14.0465 17.9535C14.0465 18.467 14.4633 18.8837 14.9767 18.8837C15.4902 18.8837 15.907 18.467 15.907 17.9535C15.907 17.44 15.4902 17.0233 14.9767 17.0233Z" fill="#77D94A"/>
<path d="M19.4419 14.0464H17.2093C16.4949 14.0464 15.907 13.4585 15.907 12.7441V10.5116C15.907 9.79714 16.4949 9.20923 17.2093 9.20923H18.1693C18.3702 9.20923 18.5563 9.31341 18.653 9.49202L19.9256 11.7246C19.9702 11.8064 20 11.9032 20 11.9999V13.4883C20 13.7934 19.747 14.0464 19.4419 14.0464ZM17.2093 10.3255C17.1051 10.3255 17.0233 10.4074 17.0233 10.5116V12.7441C17.0233 12.8483 17.1051 12.9302 17.2093 12.9302H18.8837V12.1488L17.8419 10.3255H17.2093Z" fill="#77D94A"/>
<path d="M9.02326 9.58137H4.55814C4.25302 9.58137 4 9.32834 4 9.02323C4 8.71811 4.25302 8.46509 4.55814 8.46509H9.02326C9.32837 8.46509 9.5814 8.71811 9.5814 9.02323C9.5814 9.32834 9.32837 9.58137 9.02326 9.58137Z" fill="#77D94A"/>
<path d="M7.53488 11.8139H4.55814C4.25302 11.8139 4 11.5609 4 11.2558C4 10.9507 4.25302 10.6976 4.55814 10.6976H7.53488C7.84 10.6976 8.09302 10.9507 8.09302 11.2558C8.09302 11.5609 7.84 11.8139 7.53488 11.8139Z" fill="#77D94A"/>
<path d="M6.04651 14.0466H4.55814C4.25302 14.0466 4 13.7936 4 13.4884C4 13.1833 4.25302 12.9303 4.55814 12.9303H6.04651C6.35163 12.9303 6.60465 13.1833 6.60465 13.4884C6.60465 13.7936 6.35163 14.0466 6.04651 14.0466Z" fill="#77D94A"/>
</svg>
